<?xml version="1.0" encoding="UTF-8"?><svg xmlns="http://www.w3.org/2000/svg" xmlns:xlink="http://www.w3.org/1999/xlink" width="12px" height="20px" viewBox="0 0 12 20" version="1.1"><title>Lager_15</title><g id="Page-1" stroke="none" stroke-width="1" fill="none" fill-rule="evenodd"><g id="Asset-1" transform="translate(-13.000000, -7.000000)" fill-rule="nonzero" fill="#000100"><g id="Lager_15" transform="translate(13.000000, 7.000000)"><path d="M6.091 10.681c.14-.223.235-.472.278-.732a1.003 1.003 0 0 0-.278-.679L.574 3.538A2.116 2.116 0 0 1 .564.651L.592.62A1.959 1.959 0 0 1 3.446.613l8.267 8.613c.182.197.285.455.287.723a2.124 2.124 0 0 1-.287.775l-8.267 8.665a1.959 1.959 0 0 1-2.854-.012l-.028-.036a2.133 2.133 0 0 1 .01-2.9l5.517-5.76z" id="Shape"/></g></g></g><metadata><rdf:RDF xmlns:rdf="http://www.w3.org/1999/02/22-rdf-syntax-ns#" xmlns:rdfs="http://www.w3.org/2000/01/rdf-schema#" xmlns:dc="http://purl.org/dc/elements/1.1/"><rdf:Description about="https://iconscout.com/legal#licenses" dc:title="right,arrow" dc:description="right,arrow" dc:publisher="Iconscout" dc:date="2017-09-14" dc:format="image/svg+xml" dc:language="en"><dc:creator><rdf:Bag><rdf:li>Victor Erixon</rdf:li></rdf:Bag></dc:creator></rdf:Description></rdf:RDF></metadata></svg>